<svg width="380" height="380" viewBox="0 0 380 380" fill="none" xmlns="http://www.w3.org/2000/svg">
<path d="M133.589 135.602L117.521 159.086L99.5859 134.655L115.864 110.855L133.589 135.602Z" stroke="#111111" stroke-width="1.31034" stroke-miterlimit="10" stroke-linejoin="round"/>
<path d="M280.387 135.603H133.592L115.867 110.857H240.651L215.905 72.7246H240.967L280.387 135.603Z" stroke="#111111" stroke-width="1.31034" stroke-miterlimit="10" stroke-linejoin="round"/>
<path d="M240.651 110.857H209.488L199.258 94.5782L215.904 72.7246L240.651 110.857Z" stroke="#111111" stroke-width="1.31034" stroke-miterlimit="10" stroke-linejoin="round"/>
<path d="M280.387 135.604L244.227 196.851H216.193L240.966 159.088H117.523L133.591 135.604H280.387Z" stroke="#111111" stroke-width="1.31034" stroke-miterlimit="10" stroke-linejoin="round"/>
<path d="M240.966 159.088L216.194 196.852L199.258 173.525L209.751 159.088H240.966Z" stroke="#111111" stroke-width="1.31034" stroke-miterlimit="10" stroke-linejoin="round"/>
<path d="M246.383 244.399L262.451 220.941L280.386 245.372L264.081 269.146L246.383 244.399Z" stroke="#111111" stroke-width="1.31034" stroke-miterlimit="10" stroke-linejoin="round"/>
<path d="M99.5859 244.398H246.381L264.08 269.145H139.322L164.069 307.277H138.98L99.5859 244.398Z" stroke="#111111" stroke-width="1.31034" stroke-miterlimit="10" stroke-linejoin="round"/>
<path d="M139.324 269.145H170.461L180.691 285.423L164.071 307.277L139.324 269.145Z" stroke="#111111" stroke-width="1.31034" stroke-miterlimit="10" stroke-linejoin="round"/>
<path d="M99.5859 244.396L135.746 183.148H163.753L138.98 220.939H262.449L246.381 244.396H99.5859Z" stroke="#111111" stroke-width="1.31034" stroke-miterlimit="10" stroke-linejoin="round"/>
<path d="M138.98 220.939L163.753 183.148L180.689 206.501L170.222 220.939H138.98Z" stroke="#111111" stroke-width="1.31034" stroke-miterlimit="10" stroke-linejoin="round"/>
</svg>
