<svg width="380" height="380" viewBox="0 0 380 380" fill="none" xmlns="http://www.w3.org/2000/svg">
<path d="M269.68 100.377V313.718L229.902 297.307V84.3457L269.68 100.377Z" stroke="#111111" stroke-width="1.31034" stroke-miterlimit="10" stroke-linejoin="round"/>
<path d="M269.68 313.718L309.458 297.307V84.3457L269.68 100.377" stroke="#111111" stroke-width="1.31034" stroke-miterlimit="10" stroke-linejoin="round"/>
<path d="M309.459 84.3457L269.68 66.8281L229.902 84.3457" stroke="#111111" stroke-width="1.31034" stroke-miterlimit="10"/>
<path d="M150.312 171.27L190.122 187.301V313.718L150.312 297.307" stroke="#111111" stroke-width="1.31034" stroke-miterlimit="10" stroke-linejoin="round"/>
<path d="M190.125 313.718L229.903 297.307V171.27L190.125 187.301" stroke="#111111" stroke-width="1.31034" stroke-miterlimit="10"/>
<path d="M229.9 171.269L190.122 153.752L150.312 171.269V215.569" stroke="#111111" stroke-width="1.31034" stroke-miterlimit="10"/>
<path d="M70.7578 215.568L110.536 231.631V313.717L70.7578 297.306V215.568ZM70.7578 215.568L110.536 198.051L150.314 215.568" stroke="#111111" stroke-width="1.31034" stroke-miterlimit="10" stroke-linejoin="round"/>
<path d="M110.535 313.717L150.313 297.306V215.568L110.535 231.631" stroke="#111111" stroke-width="1.31034" stroke-miterlimit="10"/>
</svg>
