<svg width="380" height="380" viewBox="0 0 380 380" fill="none" xmlns="http://www.w3.org/2000/svg">
<path d="M237.797 269.422L213.717 231.586H168.087L144.676 193.459H97.4757L120.247 231.586H75.6641L98.5808 269.422H139.47L162.213 306.036H215.491L193.389 269.422H237.797Z" stroke="#111111" stroke-width="1.31034" stroke-miterlimit="10" stroke-linejoin="round"/>
<path d="M74.0352 155.914L97.4754 193.459L118.822 155.914H74.0352ZM74.0352 155.914L97.4754 113.483H144.676L167.04 73.3789H215.433L191.905 113.483H235.383L212.641 152.395H168.552L144.676 193.459" stroke="#111111" stroke-width="1.31034" stroke-miterlimit="10" stroke-linejoin="round"/>
<path d="M75.6641 231.586L98.5808 195.291" stroke="#111111" stroke-width="1.31034" stroke-miterlimit="10"/>
<path d="M213.717 231.585L237.157 190.26L212.641 152.395" stroke="#111111" stroke-width="1.31034" stroke-miterlimit="10"/>
<path d="M168.555 152.395L191.908 192.004L237.16 190.26" stroke="#111111" stroke-width="1.31034" stroke-miterlimit="10"/>
<path d="M191.904 192.006L168.086 231.587" stroke="#111111" stroke-width="1.31034" stroke-miterlimit="10"/>
<path d="M215.492 306.036L237.798 269.422" stroke="#111111" stroke-width="1.31034" stroke-miterlimit="10"/>
<path d="M215.434 73.3789L235.384 113.483L258.126 152.395L281.799 114.327L304.571 151.872L283.922 187.817L305.966 223.937L281.596 269.422L258.592 233.564L237.798 269.422H281.596" stroke="#111111" stroke-width="1.31034" stroke-miterlimit="10" stroke-linejoin="round"/>
<path d="M234.891 114.326H281.8" stroke="#111111" stroke-width="1.31034" stroke-miterlimit="10"/>
</svg>
