<svg width="185" height="28" viewBox="0 0 185 28" fill="none" xmlns="http://www.w3.org/2000/svg">
<g id="Group">
<path id="Vector" d="M8.76916 0.726562H11.9702L20.7662 21.17H16.1127L14.2028 16.1667H6.26753L4.35768 21.17H0L8.76916 0.726562ZM12.9116 12.8312L10.2486 5.83742L7.55869 12.8312H12.9116Z" fill="#fff"/>
<path id="Vector_2" d="M29.6988 0.726562H32.8999L41.6959 21.17H37.0423L35.1325 16.1667H27.1972L25.2874 21.17H20.9297L29.6988 0.726562ZM33.8413 12.8312L31.1783 5.83742L28.4884 12.8312H33.8413Z" fill="#fff"/>
<path id="Vector_3" d="M47.125 14.3361C47.125 10.1936 50.1915 7.01953 53.9036 7.01953C55.6521 7.01953 57.1046 7.71891 58.0461 8.95628L58.073 7.44992H61.8658V21.1685H58.073L58.0461 19.6353C57.0777 20.9265 55.679 21.5989 53.7153 21.5989C49.9494 21.5989 47.125 18.5862 47.125 14.3361ZM58.0999 14.3092C58.0999 12.0766 56.6742 10.5164 54.6299 10.5164C52.5855 10.5164 51.1061 12.0766 51.1061 14.3092C51.1061 16.5419 52.5586 18.102 54.6299 18.102C56.7011 18.102 58.0999 16.5419 58.0999 14.3092Z" fill="#fff"/>
<path id="Vector_4" d="M64.5859 7.45125H68.3249L68.3518 10.0067C69.4816 6.91327 72.4674 7.18226 73.5434 7.50505L73.4358 10.9213C70.9611 10.464 68.567 11.2979 68.567 14.9831V21.1699H64.5859V7.45125Z" fill="#fff"/>
<path id="Vector_5" d="M82.473 10.5442C80.1866 10.5442 78.465 11.7816 78.465 14.2832C78.465 16.5966 79.9445 18.0222 82.5268 18.0222C83.818 18.0222 84.8939 17.6187 85.8892 16.9732L86.1044 20.739C84.8671 21.3039 83.2262 21.5191 82.0426 21.5191C77.3353 21.5191 74.457 18.6409 74.457 14.3639C74.457 10.0869 77.5236 7.07422 82.0157 7.07422C83.1724 7.07422 84.8671 7.37011 86.1044 7.9081L85.8892 11.6471C84.867 10.9477 83.6297 10.5442 82.473 10.5442Z" fill="#fff"/>
<path id="Vector_6" d="M88.7148 0.726562H92.669V8.85014C93.5567 7.66657 95.1169 7.02099 96.7577 7.02099C99.878 7.02099 101.626 9.06534 101.626 12.8312V21.17H97.7261V13.5844C97.7261 11.5132 96.9191 10.491 95.3321 10.491C93.6105 10.491 92.669 11.6746 92.669 13.7996V21.17H88.7148V0.726562Z" fill="#fff"/>
<path id="Vector_7" d="M103.914 2.23264C103.914 0.968372 104.909 0 106.227 0C107.545 0 108.514 0.968372 108.514 2.23264C108.514 3.4969 107.545 4.49217 106.227 4.49217C104.909 4.49217 103.914 3.5238 103.914 2.23264ZM104.318 7.45109H108.218V21.1697H104.318V7.45109Z" fill="#fff"/>
<path id="Vector_8" d="M110.663 22.7556H114.644C114.913 24.0199 115.828 24.7999 117.657 24.7999C119.701 24.7999 121.046 23.5088 121.046 21.1685V19.3932C120.132 20.6844 118.733 21.4375 116.5 21.4375C112.815 21.4375 110.125 18.4786 110.125 14.2823C110.125 10.086 113.003 7.01953 116.688 7.01953C118.652 7.01953 120.132 7.66512 121.073 8.82178L121.1 7.44992H124.839V21.2492C124.839 25.042 122.579 28.001 117.495 28.001C113.649 28.001 111.174 25.7683 110.663 22.7556ZM121.342 14.2308C121.342 11.9981 119.836 10.438 117.657 10.438C115.478 10.438 113.945 11.9981 113.945 14.2308C113.945 16.4634 115.451 18.0236 117.657 18.0236C119.863 18.0236 121.342 16.4634 121.342 14.2308Z" fill="#fff"/>
<path id="Vector_9" d="M127.609 7.45125H131.348L131.375 10.0067C132.505 6.91327 135.491 7.18226 136.567 7.50505L136.459 10.9213C133.985 10.464 131.59 11.2979 131.59 14.9831V21.1699H127.609V7.45125Z" fill="#fff"/>
<path id="Vector_10" d="M137.484 14.3092C137.484 9.84395 140.685 7.01953 144.909 7.01953C149.132 7.01953 152.333 9.84395 152.333 14.2823C152.333 18.7207 149.159 21.5989 144.909 21.5989C140.658 21.5989 137.484 18.7745 137.484 14.3092ZM148.379 14.3092C148.379 12.0766 147.141 10.5164 144.935 10.5164C142.73 10.5164 141.465 12.0766 141.465 14.3092C141.465 16.5419 142.703 18.102 144.935 18.102C147.168 18.102 148.379 16.5419 148.379 14.3092Z" fill="#fff"/>
<path id="Vector_11" d="M154.266 15.3865V7.45117H158.193V15.252C158.193 17.108 159 18.1033 160.775 18.1033C162.551 18.1033 163.331 17.108 163.331 15.252V7.45117H167.258V15.3865C167.258 19.3944 165.025 21.6002 160.775 21.6002C156.525 21.6002 154.266 19.3944 154.266 15.3865Z" fill="#fff"/>
<path id="Vector_12" d="M169.977 7.44992H173.581L173.635 8.76798C174.711 7.61131 176.298 7.01953 178.262 7.01953C182.027 7.01953 184.61 10.0322 184.61 14.2823C184.61 18.5324 181.812 21.5989 178.073 21.5989C176.352 21.5989 174.899 21.0878 173.85 20.1195V27.7589H169.977V7.44992ZM180.79 14.3092C180.79 12.0766 179.257 10.5164 177.105 10.5164C174.953 10.5164 173.42 12.0766 173.42 14.3092C173.42 16.5419 174.953 18.102 177.105 18.102C179.257 18.102 180.79 16.5419 180.79 14.3092Z" fill="#fff"/>
</g>
</svg>
