<svg width="568" height="580" viewBox="0 0 568 580" fill="none" xmlns="http://www.w3.org/2000/svg">
<g clip-path="url(#clip0_3595_88003)">
<path d="M219.767 427.285C221.012 427.924 221.98 428.841 222.637 430.016C223.293 431.192 223.639 432.592 223.639 434.2C223.639 435.807 223.311 437.19 222.637 438.366C221.962 439.541 221.012 440.44 219.767 441.063C218.522 441.685 217.036 441.996 215.324 441.996H210.449V426.334H215.324C217.036 426.334 218.505 426.645 219.767 427.285ZM219.957 438.712C221.029 437.64 221.548 436.136 221.548 434.2C221.548 432.263 221.012 430.725 219.94 429.636C218.868 428.547 217.329 427.994 215.324 427.994H212.489V440.302H215.324C217.347 440.302 218.885 439.766 219.957 438.694V438.712Z" fill="white"/>
<path d="M237.518 436.598H227.682C227.751 437.808 228.166 438.759 228.926 439.433C229.687 440.108 230.603 440.453 231.675 440.453C232.556 440.453 233.3 440.246 233.888 439.831C234.475 439.416 234.89 438.863 235.132 438.171H237.328C236.999 439.347 236.342 440.315 235.357 441.058C234.372 441.802 233.144 442.165 231.675 442.165C230.499 442.165 229.462 441.905 228.546 441.369C227.63 440.834 226.904 440.108 226.385 439.139C225.866 438.171 225.59 437.048 225.59 435.786C225.59 434.524 225.849 433.4 226.35 432.432C226.852 431.464 227.578 430.738 228.494 430.219C229.41 429.701 230.482 429.441 231.675 429.441C232.868 429.441 233.87 429.701 234.769 430.202C235.668 430.703 236.36 431.412 236.844 432.294C237.328 433.193 237.57 434.195 237.57 435.319C237.57 435.717 237.552 436.114 237.501 436.546L237.518 436.598ZM234.942 432.916C234.596 432.346 234.13 431.931 233.542 431.637C232.954 431.343 232.297 431.205 231.571 431.205C230.534 431.205 229.652 431.533 228.926 432.19C228.2 432.847 227.785 433.763 227.682 434.939H235.461C235.461 434.161 235.288 433.487 234.942 432.933V432.916Z" fill="white"/>
<path d="M244.867 440.112L248.687 429.688H250.865L246.042 441.996H243.657L238.816 429.688H241.029L244.867 440.112Z" fill="white"/>
<path d="M264.053 436.6H254.217C254.286 437.81 254.701 438.761 255.461 439.435C256.222 440.109 257.138 440.455 258.21 440.455C259.092 440.455 259.835 440.248 260.423 439.833C261.011 439.418 261.425 438.865 261.667 438.173H263.863C263.534 439.349 262.878 440.317 261.892 441.06C260.907 441.804 259.679 442.167 258.21 442.167C257.035 442.167 255.997 441.907 255.081 441.371C254.165 440.853 253.439 440.109 252.92 439.141C252.402 438.173 252.125 437.05 252.125 435.788C252.125 434.526 252.384 433.402 252.886 432.434C253.387 431.483 254.113 430.74 255.029 430.221C255.945 429.703 257.017 429.443 258.21 429.443C259.403 429.443 260.405 429.703 261.304 430.204C262.203 430.705 262.895 431.414 263.379 432.296C263.863 433.195 264.105 434.197 264.105 435.321C264.105 435.719 264.088 436.116 264.036 436.548L264.053 436.6ZM261.495 432.918C261.149 432.348 260.682 431.933 260.094 431.639C259.507 431.345 258.85 431.207 258.124 431.207C257.086 431.207 256.205 431.535 255.479 432.192C254.753 432.849 254.338 433.765 254.234 434.941H262.013C262.013 434.163 261.84 433.489 261.495 432.935V432.918Z" fill="white"/>
<path d="M268.86 425.365V441.995H266.82V425.365H268.86Z" fill="white"/>
<path d="M274.584 441.409C273.651 440.89 272.908 440.147 272.389 439.178C271.853 438.21 271.594 437.087 271.594 435.825C271.594 434.563 271.87 433.456 272.406 432.488C272.959 431.52 273.703 430.777 274.636 430.258C275.57 429.74 276.642 429.48 277.8 429.48C278.958 429.48 280.03 429.74 280.963 430.258C281.897 430.777 282.657 431.52 283.193 432.471C283.729 433.422 284.006 434.546 284.006 435.825C284.006 437.104 283.729 438.21 283.159 439.178C282.606 440.147 281.845 440.89 280.877 441.409C279.926 441.927 278.854 442.204 277.679 442.204C276.503 442.204 275.483 441.944 274.55 441.409H274.584ZM279.788 439.887C280.427 439.542 280.946 439.023 281.344 438.331C281.741 437.64 281.931 436.81 281.931 435.808C281.931 434.805 281.741 433.975 281.344 433.284C280.946 432.592 280.445 432.074 279.822 431.745C279.2 431.417 278.509 431.244 277.782 431.244C277.056 431.244 276.348 431.417 275.725 431.745C275.103 432.091 274.602 432.592 274.239 433.284C273.858 433.975 273.668 434.805 273.668 435.808C273.668 436.81 273.858 437.657 274.221 438.349C274.584 439.04 275.086 439.559 275.691 439.887C276.313 440.233 276.987 440.389 277.713 440.389C278.439 440.389 279.131 440.216 279.788 439.87V439.887Z" fill="white"/>
<path d="M290.574 430.189C291.369 429.722 292.302 429.48 293.374 429.48C294.446 429.48 295.466 429.74 296.348 430.276C297.247 430.794 297.938 431.538 298.439 432.488C298.941 433.439 299.2 434.546 299.2 435.808C299.2 437.069 298.941 438.159 298.439 439.127C297.938 440.095 297.229 440.855 296.348 441.391C295.449 441.927 294.463 442.204 293.374 442.204C292.285 442.204 291.404 441.962 290.591 441.495C289.796 441.028 289.173 440.44 288.759 439.732V447.839H286.719V429.688H288.759V431.953C289.156 431.244 289.761 430.656 290.574 430.189ZM296.572 433.37C296.192 432.679 295.691 432.16 295.051 431.797C294.411 431.434 293.72 431.261 292.942 431.261C292.164 431.261 291.507 431.451 290.868 431.814C290.228 432.177 289.727 432.713 289.346 433.405C288.966 434.096 288.776 434.909 288.776 435.825C288.776 436.741 288.966 437.571 289.346 438.262C289.727 438.954 290.245 439.49 290.868 439.853C291.507 440.216 292.199 440.406 292.942 440.406C293.685 440.406 294.411 440.216 295.051 439.853C295.691 439.49 296.192 438.954 296.572 438.262C296.953 437.571 297.143 436.741 297.143 435.808C297.143 434.874 296.953 434.062 296.572 433.387V433.37Z" fill="white"/>
<path d="M319.286 430.046C320.029 430.444 320.634 431.032 321.066 431.827C321.499 432.622 321.723 433.59 321.723 434.731V441.992H319.701V435.025C319.701 433.798 319.39 432.864 318.785 432.207C318.179 431.55 317.367 431.222 316.33 431.222C315.293 431.222 314.428 431.568 313.789 432.242C313.166 432.916 312.838 433.901 312.838 435.198V441.992H310.815V435.025C310.815 433.798 310.504 432.864 309.899 432.207C309.294 431.55 308.464 431.222 307.444 431.222C306.424 431.222 305.543 431.568 304.903 432.242C304.281 432.916 303.97 433.901 303.97 435.198V441.992H301.93V429.683H303.97V431.464C304.367 430.824 304.92 430.323 305.595 429.977C306.269 429.632 307.029 429.459 307.859 429.459C308.896 429.459 309.813 429.683 310.608 430.15C311.403 430.617 311.991 431.291 312.388 432.19C312.734 431.326 313.305 430.651 314.1 430.167C314.895 429.683 315.777 429.441 316.745 429.441C317.713 429.441 318.56 429.649 319.303 430.029L319.286 430.046Z" fill="white"/>
<path d="M336.225 436.598H326.389C326.458 437.808 326.873 438.759 327.633 439.433C328.394 440.108 329.31 440.453 330.382 440.453C331.264 440.453 332.007 440.246 332.595 439.831C333.182 439.416 333.597 438.863 333.839 438.171H336.035C335.706 439.347 335.049 440.315 334.064 441.058C333.079 441.802 331.851 442.165 330.382 442.165C329.206 442.165 328.169 441.905 327.253 441.369C326.337 440.851 325.611 440.108 325.092 439.139C324.573 438.171 324.297 437.048 324.297 435.786C324.297 434.524 324.556 433.4 325.058 432.432C325.559 431.481 326.285 430.738 327.201 430.219C328.117 429.701 329.189 429.441 330.382 429.441C331.575 429.441 332.577 429.701 333.476 430.202C334.375 430.703 335.067 431.412 335.551 432.294C336.035 433.193 336.277 434.195 336.277 435.319C336.277 435.717 336.259 436.114 336.208 436.546L336.225 436.598ZM333.666 432.916C333.321 432.346 332.854 431.931 332.266 431.637C331.678 431.343 331.022 431.205 330.295 431.205C329.258 431.205 328.377 431.533 327.651 432.19C326.925 432.847 326.51 433.763 326.406 434.939H334.185C334.185 434.161 334.012 433.487 333.666 432.933V432.916Z" fill="white"/>
<path d="M348.641 430.809C349.574 431.708 350.041 433.022 350.041 434.733V441.994H348.018V435.027C348.018 433.8 347.707 432.866 347.102 432.209C346.48 431.552 345.65 431.224 344.578 431.224C343.506 431.224 342.642 431.552 342.002 432.227C341.363 432.901 341.052 433.886 341.052 435.165V441.976H339.012V429.668H341.052V431.414C341.449 430.792 342.002 430.29 342.711 429.962C343.42 429.634 344.181 429.443 345.01 429.443C346.514 429.443 347.724 429.893 348.658 430.809H348.641Z" fill="white"/>
<path d="M355.88 431.362V438.623C355.88 439.228 356.001 439.643 356.261 439.885C356.52 440.127 356.952 440.248 357.592 440.248H359.096V441.977H357.246C356.105 441.977 355.258 441.717 354.687 441.181C354.117 440.663 353.84 439.798 353.84 438.588V431.328H352.25V429.651H353.84V426.557H355.88V429.651H359.096V431.328H355.88V431.362Z" fill="white"/>
<path d="M191.971 286.723C192.662 285.496 193.596 284.545 194.789 283.854C195.981 283.162 197.295 282.816 198.747 282.816C200.459 282.816 201.945 283.231 203.225 284.044C204.504 284.874 205.42 286.032 206.008 287.553H203.553C203.121 286.602 202.499 285.876 201.669 285.375C200.856 284.874 199.871 284.614 198.73 284.614C197.589 284.614 196.656 284.874 195.791 285.375C194.927 285.876 194.235 286.602 193.751 287.536C193.25 288.469 193.008 289.576 193.008 290.82C193.008 292.065 193.25 293.154 193.751 294.088C194.253 295.021 194.927 295.747 195.791 296.248C196.656 296.75 197.641 297.009 198.73 297.009C199.819 297.009 200.839 296.767 201.669 296.248C202.481 295.747 203.104 295.021 203.553 294.088H206.008C205.42 295.592 204.487 296.75 203.225 297.562C201.945 298.375 200.459 298.79 198.747 298.79C197.295 298.79 195.964 298.444 194.789 297.77C193.613 297.096 192.662 296.145 191.971 294.935C191.279 293.725 190.934 292.342 190.934 290.82C190.934 289.299 191.279 287.916 191.971 286.689V286.723Z" fill="white"/>
<path d="M224.94 283.125V298.683H222.9V287.084L217.731 298.683H216.296L211.11 287.066V298.683H209.07V283.125H211.266L217.022 295.987L222.779 283.125H224.957H224.94Z" fill="white"/>
<path d="M242.036 277.508L235.882 302.505H233.859L239.996 277.508H242.036Z" fill="white"/>
<path d="M253.286 298.289C252.473 297.926 251.833 297.407 251.367 296.768C250.9 296.128 250.658 295.367 250.641 294.503H252.819C252.888 295.229 253.199 295.851 253.735 296.353C254.271 296.854 255.049 297.113 256.069 297.113C257.089 297.113 257.815 296.871 258.368 296.387C258.921 295.903 259.215 295.281 259.215 294.503C259.215 293.898 259.059 293.414 258.714 293.051C258.385 292.671 257.97 292.394 257.486 292.204C256.985 292.014 256.328 291.806 255.481 291.582C254.444 291.305 253.614 291.046 252.992 290.769C252.369 290.492 251.833 290.078 251.401 289.507C250.969 288.937 250.744 288.159 250.744 287.173C250.744 286.326 250.952 285.566 251.401 284.909C251.833 284.252 252.438 283.733 253.234 283.387C254.029 283.042 254.928 282.852 255.948 282.852C257.417 282.852 258.61 283.215 259.561 283.958C260.494 284.684 261.03 285.669 261.151 286.879H258.904C258.835 286.274 258.506 285.756 257.953 285.289C257.4 284.822 256.657 284.598 255.758 284.598C254.911 284.598 254.202 284.822 253.666 285.254C253.13 285.704 252.853 286.309 252.853 287.104C252.853 287.675 253.009 288.141 253.337 288.504C253.666 288.867 254.063 289.144 254.53 289.317C254.997 289.49 255.671 289.715 256.518 289.957C257.555 290.233 258.385 290.527 259.008 290.804C259.63 291.08 260.183 291.512 260.633 292.083C261.082 292.653 261.307 293.449 261.307 294.434C261.307 295.194 261.099 295.921 260.702 296.595C260.304 297.269 259.699 297.822 258.904 298.237C258.109 298.652 257.175 298.859 256.103 298.859C255.032 298.859 254.15 298.669 253.32 298.306L253.286 298.289Z" fill="white"/>
<path d="M275.209 286.357V298.666H273.169V296.851C272.771 297.473 272.235 297.974 271.544 298.32C270.852 298.666 270.075 298.839 269.245 298.839C268.294 298.839 267.43 298.649 266.652 298.251C265.874 297.853 265.286 297.266 264.837 296.47C264.404 295.675 264.18 294.707 264.18 293.566V286.357H266.202V293.307C266.202 294.517 266.513 295.45 267.118 296.107C267.724 296.764 268.571 297.093 269.642 297.093C270.714 297.093 271.596 296.747 272.218 296.09C272.84 295.416 273.169 294.43 273.169 293.151V286.392H275.209V286.357Z" fill="white"/>
<path d="M282.519 286.875C283.314 286.408 284.248 286.166 285.32 286.166C286.391 286.166 287.411 286.425 288.293 286.961C289.192 287.48 289.883 288.223 290.402 289.174C290.903 290.125 291.163 291.231 291.163 292.493C291.163 293.755 290.903 294.844 290.402 295.812C289.901 296.78 289.192 297.541 288.293 298.077C287.394 298.613 286.409 298.889 285.32 298.889C284.23 298.889 283.349 298.647 282.536 298.18C281.741 297.714 281.119 297.126 280.704 296.417V304.525H278.664V286.373H280.704V288.638C281.102 287.929 281.707 287.342 282.519 286.875ZM288.5 290.056C288.12 289.364 287.619 288.845 286.979 288.482C286.34 288.119 285.648 287.947 284.887 287.947C284.127 287.947 283.453 288.137 282.813 288.5C282.173 288.863 281.672 289.399 281.292 290.09C280.911 290.782 280.721 291.594 280.721 292.51C280.721 293.427 280.911 294.256 281.292 294.948C281.672 295.639 282.191 296.175 282.813 296.538C283.453 296.901 284.144 297.091 284.887 297.091C285.631 297.091 286.357 296.901 286.979 296.538C287.619 296.175 288.12 295.639 288.5 294.948C288.881 294.256 289.071 293.427 289.071 292.493C289.071 291.56 288.881 290.747 288.5 290.073V290.056Z" fill="white"/>
<path d="M305.026 293.292H295.189C295.259 294.502 295.673 295.452 296.434 296.127C297.195 296.801 298.111 297.147 299.183 297.147C300.064 297.147 300.808 296.939 301.395 296.524C301.983 296.109 302.398 295.556 302.64 294.865H304.836C304.507 296.04 303.85 297.008 302.865 297.752C301.879 298.495 300.652 298.858 299.183 298.858C298.007 298.858 296.97 298.599 296.054 298.063C295.138 297.544 294.411 296.801 293.893 295.833C293.374 294.865 293.098 293.741 293.098 292.479C293.098 291.217 293.357 290.094 293.858 289.125C294.36 288.175 295.086 287.431 296.002 286.913C296.918 286.394 297.99 286.135 299.183 286.135C300.376 286.135 301.378 286.394 302.277 286.895C303.176 287.397 303.867 288.106 304.352 288.987C304.836 289.886 305.078 290.889 305.078 292.012C305.078 292.41 305.06 292.808 305.008 293.24L305.026 293.292ZM302.467 289.609C302.121 289.039 301.655 288.624 301.067 288.33C300.479 288.036 299.822 287.898 299.096 287.898C298.059 287.898 297.177 288.227 296.451 288.883C295.725 289.54 295.31 290.457 295.207 291.632H302.986C302.986 290.854 302.813 290.18 302.467 289.627V289.609Z" fill="white"/>
<path d="M311.371 286.723C312.028 286.325 312.858 286.135 313.809 286.135V288.244H313.273C310.974 288.244 309.833 289.488 309.833 291.978V298.668H307.793V286.36H309.833V288.365C310.196 287.656 310.697 287.12 311.371 286.723Z" fill="white"/>
<path d="M320.757 296.801L324.578 286.377H326.756L321.933 298.685H319.547L314.707 286.377H316.92L320.757 296.801Z" fill="white"/>
<path d="M328.851 283.954C328.574 283.678 328.453 283.349 328.453 282.969C328.453 282.589 328.591 282.243 328.851 281.984C329.11 281.724 329.456 281.586 329.836 281.586C330.216 281.586 330.528 281.724 330.787 281.984C331.046 282.26 331.184 282.589 331.184 282.969C331.184 283.349 331.046 283.695 330.787 283.954C330.528 284.231 330.199 284.352 329.836 284.352C329.473 284.352 329.11 284.214 328.851 283.954ZM330.821 286.357V298.666H328.782V286.357H330.821Z" fill="white"/>
<path d="M336.128 298.405C335.384 298.077 334.779 297.627 334.347 297.057C333.915 296.486 333.673 295.812 333.621 295.069H335.73C335.799 295.691 336.076 296.193 336.594 296.573C337.113 296.953 337.787 297.161 338.634 297.161C339.412 297.161 340.035 296.988 340.484 296.642C340.934 296.296 341.158 295.864 341.158 295.345C341.158 294.827 340.916 294.412 340.432 294.135C339.948 293.876 339.205 293.617 338.202 293.357C337.286 293.115 336.543 292.873 335.972 292.631C335.402 292.389 334.9 292.026 334.485 291.525C334.071 291.041 333.863 290.401 333.863 289.606C333.863 288.984 334.053 288.396 334.416 287.877C334.779 287.359 335.315 286.944 336.007 286.633C336.698 286.322 337.476 286.166 338.375 286.166C339.741 286.166 340.83 286.512 341.677 287.203C342.524 287.895 342.973 288.828 343.025 290.038H340.985C340.934 289.399 340.674 288.88 340.207 288.482C339.741 288.102 339.101 287.895 338.306 287.895C337.563 287.895 336.992 288.05 336.56 288.361C336.128 288.673 335.903 289.088 335.903 289.589C335.903 289.986 336.041 290.332 336.301 290.591C336.56 290.851 336.888 291.058 337.286 291.214C337.684 291.369 338.237 291.542 338.946 291.75C339.827 291.992 340.553 292.234 341.106 292.458C341.66 292.683 342.144 293.046 342.541 293.496C342.939 293.962 343.146 294.568 343.164 295.311C343.164 295.985 342.973 296.59 342.593 297.126C342.213 297.662 341.694 298.094 341.003 298.388C340.311 298.682 339.533 298.855 338.652 298.855C337.701 298.855 336.854 298.699 336.11 298.371L336.128 298.405Z" fill="white"/>
<path d="M346.101 283.954C345.824 283.678 345.703 283.349 345.703 282.969C345.703 282.589 345.841 282.243 346.101 281.984C346.377 281.707 346.706 281.586 347.086 281.586C347.466 281.586 347.778 281.724 348.037 281.984C348.296 282.26 348.434 282.589 348.434 282.969C348.434 283.349 348.296 283.695 348.037 283.954C347.778 284.231 347.449 284.352 347.086 284.352C346.723 284.352 346.36 284.214 346.101 283.954ZM348.071 286.357V298.666H346.032V286.357H348.071Z" fill="white"/>
<path d="M353.795 298.094C352.862 297.575 352.119 296.832 351.6 295.864C351.064 294.896 350.805 293.772 350.805 292.51C350.805 291.248 351.081 290.142 351.617 289.174C352.17 288.206 352.914 287.463 353.847 286.944C354.781 286.425 355.852 286.166 357.011 286.166C358.169 286.166 359.241 286.425 360.174 286.944C361.108 287.463 361.868 288.206 362.404 289.157C362.94 290.107 363.217 291.231 363.217 292.51C363.217 293.79 362.94 294.896 362.37 295.864C361.817 296.832 361.056 297.575 360.088 298.094C359.137 298.613 358.065 298.889 356.89 298.889C355.714 298.889 354.694 298.63 353.761 298.094H353.795ZM358.999 296.573C359.638 296.227 360.157 295.708 360.555 295.017C360.952 294.326 361.142 293.496 361.142 292.493C361.142 291.49 360.952 290.661 360.555 289.969C360.157 289.278 359.656 288.759 359.033 288.431C358.411 288.102 357.72 287.929 356.993 287.929C356.267 287.929 355.559 288.102 354.936 288.431C354.314 288.776 353.813 289.278 353.45 289.969C353.069 290.661 352.879 291.49 352.879 292.493C352.879 293.496 353.069 294.343 353.432 295.034C353.795 295.726 354.297 296.244 354.902 296.573C355.524 296.919 356.198 297.074 356.924 297.074C357.65 297.074 358.342 296.901 358.999 296.556V296.573Z" fill="white"/>
<path d="M375.594 287.5C376.527 288.399 376.994 289.713 376.994 291.425V298.685H374.971V291.718C374.971 290.491 374.66 289.558 374.055 288.901C373.45 288.244 372.603 287.915 371.531 287.915C370.459 287.915 369.595 288.244 368.955 288.918C368.316 289.592 368.005 290.578 368.005 291.857V298.668H365.965V286.36H368.005V288.106C368.402 287.483 368.955 286.982 369.664 286.653C370.356 286.308 371.134 286.135 371.963 286.135C373.467 286.135 374.678 286.584 375.611 287.5H375.594Z" fill="white"/>
<path d="M256.99 146.06C258.234 146.7 259.202 147.616 259.859 148.792C260.516 149.967 260.862 151.367 260.862 152.975C260.862 154.583 260.533 155.966 259.859 157.141C259.185 158.317 258.234 159.216 256.99 159.838C255.745 160.46 254.258 160.771 252.547 160.771H247.672V145.109H252.547C254.258 145.109 255.728 145.421 256.99 146.06ZM257.18 157.47C258.252 156.398 258.77 154.894 258.77 152.958C258.77 151.022 258.234 149.483 257.162 148.394C256.091 147.305 254.552 146.752 252.547 146.752H249.712V159.06H252.547C254.569 159.06 256.108 158.524 257.18 157.452V157.47Z" fill="white"/>
<path d="M274.725 155.379H264.889C264.958 156.59 265.373 157.54 266.133 158.215C266.894 158.889 267.81 159.234 268.882 159.234C269.764 159.234 270.507 159.027 271.095 158.612C271.682 158.197 272.097 157.644 272.339 156.953H274.535C274.206 158.128 273.549 159.096 272.564 159.84C271.579 160.583 270.351 160.946 268.882 160.946C267.706 160.946 266.669 160.687 265.753 160.151C264.837 159.632 264.111 158.889 263.592 157.921C263.073 156.953 262.797 155.829 262.797 154.567C262.797 153.305 263.056 152.181 263.558 151.213C264.059 150.263 264.785 149.519 265.701 149.001C266.617 148.482 267.689 148.223 268.882 148.223C270.075 148.223 271.077 148.482 271.976 148.983C272.875 149.485 273.567 150.193 274.051 151.075C274.535 151.974 274.777 152.977 274.777 154.1C274.777 154.498 274.759 154.895 274.708 155.328L274.725 155.379ZM272.166 151.697C271.821 151.127 271.354 150.712 270.766 150.418C270.178 150.124 269.522 149.986 268.795 149.986C267.758 149.986 266.877 150.314 266.151 150.971C265.425 151.628 265.01 152.544 264.906 153.72H272.685C272.685 152.942 272.512 152.268 272.166 151.715V151.697Z" fill="white"/>
<path d="M279.323 160.476C278.58 160.147 277.975 159.698 277.542 159.127C277.11 158.557 276.868 157.882 276.816 157.139H278.925C278.977 157.761 279.271 158.263 279.79 158.643C280.308 159.023 280.983 159.231 281.83 159.231C282.608 159.231 283.23 159.058 283.679 158.712C284.129 158.367 284.354 157.934 284.354 157.416C284.354 156.897 284.112 156.482 283.628 156.206C283.143 155.946 282.4 155.687 281.397 155.428C280.481 155.186 279.738 154.944 279.167 154.702C278.597 154.46 278.096 154.097 277.681 153.595C277.266 153.111 277.058 152.472 277.058 151.676C277.058 151.054 277.249 150.466 277.629 149.948C278.009 149.429 278.528 149.014 279.219 148.703C279.911 148.392 280.689 148.236 281.588 148.236C282.953 148.236 284.06 148.582 284.889 149.274C285.737 149.965 286.186 150.899 286.238 152.109H284.198C284.146 151.469 283.887 150.95 283.42 150.553C282.953 150.172 282.314 149.965 281.518 149.965C280.792 149.965 280.205 150.121 279.773 150.432C279.34 150.743 279.116 151.158 279.116 151.659C279.116 152.057 279.254 152.402 279.513 152.662C279.772 152.921 280.101 153.129 280.499 153.284C280.896 153.44 281.449 153.613 282.158 153.82C283.04 154.062 283.766 154.304 284.319 154.529C284.872 154.754 285.356 155.117 285.754 155.566C286.151 156.033 286.359 156.638 286.376 157.381C286.376 158.055 286.186 158.66 285.806 159.196C285.425 159.732 284.907 160.164 284.215 160.458C283.524 160.752 282.746 160.925 281.864 160.925C280.913 160.925 280.066 160.769 279.323 160.441V160.476Z" fill="white"/>
<path d="M289.296 146.04C289.019 145.764 288.898 145.435 288.898 145.055C288.898 144.675 289.037 144.329 289.296 144.069C289.573 143.793 289.901 143.672 290.281 143.672C290.662 143.672 290.973 143.81 291.232 144.069C291.491 144.329 291.63 144.675 291.63 145.055C291.63 145.435 291.491 145.781 291.232 146.04C290.973 146.317 290.644 146.438 290.281 146.438C289.918 146.438 289.555 146.3 289.296 146.04ZM291.267 148.443V160.751H289.227V148.443H291.267Z" fill="white"/>
<path d="M302.628 148.945C303.424 149.412 304.029 150 304.409 150.691V148.444H306.483V161.029C306.483 162.153 306.241 163.155 305.757 164.037C305.273 164.919 304.599 165.593 303.7 166.094C302.801 166.595 301.764 166.837 300.589 166.837C298.964 166.837 297.615 166.457 296.543 165.697C295.472 164.936 294.832 163.899 294.642 162.568H296.664C296.889 163.311 297.356 163.916 298.065 164.383C298.773 164.832 299.621 165.074 300.606 165.074C301.73 165.074 302.646 164.728 303.355 164.02C304.063 163.311 304.426 162.326 304.426 161.046V158.453C304.029 159.179 303.424 159.767 302.628 160.251C301.833 160.735 300.9 160.977 299.845 160.977C298.791 160.977 297.754 160.701 296.872 160.165C295.973 159.629 295.281 158.868 294.78 157.9C294.279 156.932 294.02 155.826 294.02 154.581C294.02 153.336 294.279 152.213 294.78 151.262C295.281 150.311 295.99 149.568 296.872 149.049C297.771 148.53 298.756 148.254 299.845 148.254C300.934 148.254 301.851 148.479 302.646 148.945H302.628ZM303.856 152.161C303.476 151.469 302.974 150.951 302.335 150.57C301.695 150.207 301.004 150.017 300.226 150.017C299.448 150.017 298.773 150.19 298.134 150.553C297.512 150.916 297.01 151.435 296.63 152.126C296.25 152.818 296.077 153.63 296.077 154.546C296.077 155.463 296.267 156.31 296.63 157.001C297.01 157.693 297.512 158.229 298.134 158.592C298.756 158.955 299.465 159.145 300.226 159.145C300.986 159.145 301.695 158.955 302.335 158.592C302.974 158.229 303.476 157.693 303.856 157.001C304.236 156.31 304.409 155.497 304.409 154.564C304.409 153.63 304.219 152.835 303.856 152.143V152.161Z" fill="white"/>
<path d="M319.586 149.588C320.519 150.487 320.986 151.801 320.986 153.512V160.773H318.964V153.806C318.964 152.579 318.652 151.645 318.047 150.989C317.425 150.332 316.595 150.003 315.523 150.003C314.452 150.003 313.587 150.332 312.948 151.006C312.308 151.68 311.997 152.665 311.997 153.945V160.756H309.957V148.447H311.997V150.193C312.395 149.571 312.948 149.07 313.656 148.741C314.365 148.413 315.126 148.223 315.956 148.223C317.46 148.223 318.67 148.672 319.603 149.588H319.586Z" fill="white"/>
<path d="M284.489 382.127C441.094 382.127 568.048 342.941 568.048 294.602C568.048 246.264 441.094 207.078 284.489 207.078C127.883 207.078 0.929688 246.264 0.929688 294.602C0.929688 342.941 127.883 382.127 284.489 382.127Z" stroke="white" stroke-width="0.999772"/>
<path d="M284.494 246.67C418.777 246.67 527.636 207.484 527.636 159.145C527.636 110.807 418.777 71.6211 284.494 71.6211C150.21 71.6211 41.3516 110.807 41.3516 159.145C41.3516 207.484 150.21 246.67 284.494 246.67Z" stroke="white" stroke-width="0.999772"/>
<path d="M284.494 517.314C418.777 517.314 527.636 478.128 527.636 429.79C527.636 381.452 418.777 342.266 284.494 342.266C150.21 342.266 41.3516 381.452 41.3516 429.79C41.3516 478.128 150.21 517.314 284.494 517.314Z" stroke="white" stroke-width="0.999772"/>
<path fill-rule="evenodd" clip-rule="evenodd" d="M199.094 23.6684C83.9437 59.8956 0.4375 167.436 0.4375 294.467C0.4375 451.234 127.615 578.319 284.497 578.319C441.378 578.319 568.556 451.234 568.556 294.467C568.556 167.433 485.045 59.8894 369.889 23.6653V24.7138C484.484 60.9029 567.556 167.991 567.556 294.467C567.556 450.681 440.826 577.319 284.497 577.319C128.167 577.319 1.43727 450.681 1.43727 294.467C1.43727 167.995 84.5039 60.9091 199.094 24.7169V23.6684Z" fill="white"/>
<path d="M232.338 23.596H225.095L223.936 27.0188H218.992L226.011 7.60547H231.491L238.509 27.0188H233.496L232.338 23.596ZM231.11 19.9484L228.707 12.8434L226.322 19.9484H231.11Z" fill="white"/>
<path d="M252.718 23.596H245.475L244.317 27.0188H239.355L246.374 7.60547H251.854L258.873 27.0188H253.859L252.701 23.596H252.718ZM251.508 19.9484L249.105 12.8434L246.72 19.9484H251.508Z" fill="white"/>
<path d="M267.327 12.1697C268.156 10.6657 269.315 9.49017 270.801 8.66039C272.288 7.83061 273.965 7.39844 275.849 7.39844C278.148 7.39844 280.119 8.00348 281.761 9.23086C283.404 10.441 284.493 12.1005 285.046 14.2095H279.842C279.462 13.397 278.909 12.7747 278.2 12.3598C277.491 11.9449 276.679 11.7202 275.78 11.7202C274.328 11.7202 273.135 12.2215 272.236 13.2415C271.337 14.2614 270.871 15.6098 270.871 17.3039C270.871 18.998 271.32 20.3637 272.236 21.3664C273.135 22.3863 274.328 22.8876 275.78 22.8876C276.679 22.8876 277.491 22.6802 278.2 22.248C278.909 21.8158 279.462 21.2108 279.842 20.3983H285.046C284.493 22.5073 283.404 24.1496 281.761 25.3597C280.119 26.5698 278.148 27.1748 275.849 27.1748C273.965 27.1748 272.288 26.7599 270.801 25.9128C269.315 25.0831 268.156 23.9076 267.327 22.4209C266.497 20.9342 266.082 19.2228 266.082 17.3039C266.082 15.385 266.497 13.6736 267.327 12.1697Z" fill="white"/>
<path d="M301.712 13.1912C302.784 14.3668 303.32 15.9745 303.32 18.0143V27.0382H298.618V18.6539C298.618 17.6167 298.358 16.8215 297.822 16.251C297.286 15.6806 296.56 15.3867 295.661 15.3867C294.763 15.3867 294.037 15.6806 293.501 16.251C292.965 16.8215 292.705 17.6167 292.705 18.6539V27.0382H287.969V6.57031H292.705V13.6753C293.189 13.0011 293.846 12.4479 294.676 12.0503C295.506 11.6527 296.439 11.4453 297.477 11.4453C299.24 11.4453 300.675 12.033 301.729 13.2085L301.712 13.1912Z" fill="white"/>
<path d="M306.554 15.107C307.159 13.9142 307.971 12.9807 309.008 12.3411C310.046 11.7015 311.186 11.373 312.466 11.373C313.555 11.373 314.506 11.5978 315.335 12.03C316.165 12.4621 316.787 13.0499 317.237 13.7759V11.5978H321.974V27.0351H317.237V24.8569C316.77 25.583 316.131 26.1535 315.318 26.6029C314.506 27.0524 313.537 27.2598 312.448 27.2598C311.186 27.2598 310.045 26.9314 309.026 26.2745C307.988 25.6176 307.176 24.6841 306.571 23.474C305.966 22.2639 305.672 20.8636 305.672 19.2905C305.672 17.7174 305.966 16.3171 306.571 15.107H306.554ZM316.234 16.5246C315.577 15.8504 314.782 15.5046 313.849 15.5046C312.915 15.5046 312.12 15.8331 311.463 16.5073C310.806 17.1815 310.478 18.115 310.478 19.2905C310.478 20.466 310.806 21.3995 311.463 22.091C312.12 22.7825 312.915 23.1282 313.849 23.1282C314.782 23.1282 315.595 22.7825 316.234 22.1083C316.891 21.4341 317.22 20.5006 317.22 19.3078C317.22 18.115 316.891 17.1988 316.234 16.5073V16.5246Z" fill="white"/>
<path d="M325.721 9.26424C325.202 8.78021 324.926 8.17516 324.926 7.44911C324.926 6.72305 325.185 6.10072 325.721 5.61668C326.24 5.13264 326.931 4.89062 327.761 4.89062C328.591 4.89062 329.248 5.13264 329.766 5.61668C330.285 6.10072 330.561 6.72305 330.561 7.44911C330.561 8.17516 330.302 8.78021 329.766 9.26424C329.248 9.74828 328.573 9.9903 327.761 9.9903C326.948 9.9903 326.257 9.74828 325.721 9.26424ZM330.112 11.598V27.0353H325.375V11.598H330.112Z" fill="white"/>
<path d="M347.281 13.1871C348.352 14.3626 348.906 15.9703 348.906 18.0102V27.034H344.204V18.6498C344.204 17.6126 343.927 16.8174 343.408 16.2469C342.872 15.6764 342.164 15.3826 341.247 15.3826C340.331 15.3826 339.622 15.6764 339.087 16.2469C338.551 16.8174 338.291 17.6126 338.291 18.6498V27.034H333.555V11.5967H338.291V13.6366C338.775 12.9624 339.415 12.4092 340.227 12.0116C341.04 11.614 341.956 11.4238 342.959 11.4238C344.757 11.4238 346.209 12.0116 347.281 13.1871Z" fill="white"/>
</g>
<defs>
<clipPath id="clip0_3595_88003">
<rect width="568" height="580" fill="white"/>
</clipPath>
</defs>
</svg>
