<?xml version="1.0" encoding="UTF-8"?>
<svg id="_레이어_1" data-name="레이어 1" xmlns="http://www.w3.org/2000/svg" width="30.76mm" height="8.5mm" viewBox="0 0 87.2 24.09">
  <g id="Shape_1" data-name="Shape 1">
    <path d="M4.67,0C3.07,0,1.78,1.29,1.78,2.88s1.29,2.88,2.88,2.88,2.88-1.29,2.88-2.88S6.26,0,4.67,0ZM81.31,6.47c-2.13,0-3.99,1.35-5.03,3.39-.94-2-2.97-3.39-5.33-3.39-1.78,0-3.39.96-4.47,2.47v-.54c0-.75-.6-1.35-1.35-1.35h-5.79v1.16h2.19v15.33h4.96v-11.62c0-1.87,1.26-3.39,2.82-3.39s2.82,1.52,2.82,3.39v11.62h4.71v-11.62c0-1.87,1.27-3.39,2.83-3.39s2.82,1.52,2.82,3.39v11.62h4.72v-11.17c0-3.25-2.64-5.89-5.89-5.89ZM5.79,7.01L0,7.04v1.16h2.18v15.33h4.96v-15.16c0-.74-.61-1.35-1.35-1.35ZM15.74.29h-5.79v1.15h2.18v22.09h4.96V1.64c0-.75-.6-1.35-1.35-1.35ZM29.54,6.47c-4.91,0-8.82,3.98-8.82,8.81s3.91,8.81,8.82,8.81,8.81-3.98,8.81-8.81-3.91-8.81-8.81-8.81ZM29.54,22.62c-2.08,0-3.3-2.53-3.3-7.38s1.22-7.38,3.3-7.38,3.3,2.53,3.3,7.38-1.22,7.38-3.3,7.38ZM49.61,6.47c-4.9,0-8.82,3.98-8.82,8.81s3.91,8.81,8.82,8.81,8.82-3.98,8.82-8.81-3.91-8.81-8.82-8.81ZM49.61,22.62c-2.08,0-3.29-2.53-3.29-7.38s1.22-7.38,3.29-7.38,3.3,2.53,3.3,7.38-1.22,7.38-3.3,7.38Z" fill="#c7171f" stroke-width="0"/>
  </g>
</svg>